<?xml version="1.0" standalone="no"?><!DOCTYPE svg PUBLIC "-//W3C//DTD SVG 1.1//EN" "http://www.w3.org/Graphics/SVG/1.1/DTD/svg11.dtd"><svg t="1715320360860" class="icon" viewBox="0 0 1024 1024" version="1.1" xmlns="http://www.w3.org/2000/svg" p-id="1638" xmlns:xlink="http://www.w3.org/1999/xlink" width="200" height="200"><path d="M424.61866667 923.78453333A308.45610667 308.45610667 0 0 1 116.81792 615.54688c0-266.73152 272.62976-560.55125333 283.98933333-573.00309333A31.45728 31.45728 0 0 1 424.61866667 31.40266667a32.54954667 32.54954667 0 0 1 24.02986666 10.92266666c7.20896 8.30122667 177.38410667 202.50624 250.56597334 405.66784a32.768 32.768 0 1 1-61.60384 21.84533334C585.18186667 323.25632 473.33376 175.80032 424.61866667 115.28874667c-65.536 77.76938667-242.26474667 303.65013333-242.26474667 500.25813333A242.92010667 242.92010667 0 0 0 424.61866667 858.24853333a240.29866667 240.29866667 0 0 0 112.72192-27.74357333 32.768 32.768 0 0 1 30.36501333 58.10858667A309.32992 309.32992 0 0 1 424.61866667 923.78453333z" fill="#474747" p-id="1639"></path><path d="M568.57941333 648.53333333a113.15882667 113.15882667 0 0 1 23.59296 7.20896 72.52650667 72.52650667 0 0 1 21.84533334 14.19946667 70.56042667 70.56042667 0 0 1 14.85482666 23.15605333 83.01226667 83.01226667 0 0 1 5.67978667 32.768 77.33248 77.33248 0 0 1-23.37450667 60.29312 97.21173333 97.21173333 0 0 1-68.37589333 21.84533334h-89.34741333a21.84533333 21.84533333 0 0 1-17.25781334-5.89824 17.91317333 17.91317333 0 0 1-5.67978666-13.1072V530.35008a19.00544 19.00544 0 0 1 5.89824-13.32565333 23.15605333 23.15605333 0 0 1 17.03936-5.89824h77.33248a142.86848 142.86848 0 0 1 43.69066666 6.11669333 83.23072 83.23072 0 0 1 29.27274667 16.60245333 57.23477333 57.23477333 0 0 1 15.29173333 21.84533334 83.23072 83.23072 0 0 1 4.58752 27.30666666 71.87114667 71.87114667 0 0 1-4.36906666 25.99594667 59.20085333 59.20085333 0 0 1-11.57802667 19.00544 62.91456 62.91456 0 0 1-17.47626667 12.67029333 80.82773333 80.82773333 0 0 1-21.62688 7.86432z m-82.79381333-23.37450666h43.69066667a40.63232 40.63232 0 0 0 30.58346666-9.61194667 34.73408 34.73408 0 0 0 8.51968-24.02986667 36.48170667 36.48170667 0 0 0-1.96608-12.01493333 29.92810667 29.92810667 0 0 0-6.77205333-10.48576 34.07872 34.07872 0 0 0-12.23338667-7.42741333 49.37045333 49.37045333 0 0 0-18.13162666-2.83989334h-43.69066667z m0 134.78570666h41.50613333a65.536 65.536 0 0 0 38.22933334-9.8304 34.73408 34.73408 0 0 0 13.32565333-31.45728 53.73952 53.73952 0 0 0-3.71370667-21.84533333 31.45728 31.45728 0 0 0-11.35957333-13.1072 49.58890667 49.58890667 0 0 0-18.35008-6.99050667 166.67989333 166.67989333 0 0 0-24.90368-1.74762666H485.7856zM666.44650667 539.30666667a53.52106667 53.52106667 0 0 1 1.52917333-14.63637334 15.07328 15.07328 0 0 1 5.67978667-8.30122666 25.12213333 25.12213333 0 0 1 13.1072-4.36906667 167.99061333 167.99061333 0 0 1 19.6608 0h60.07466666a196.608 196.608 0 0 1 47.40437334 4.80597333 70.99733333 70.99733333 0 0 1 31.67573333 15.72864 61.60384 61.60384 0 0 1 17.91317333 29.05429334 152.91733333 152.91733333 0 0 1 5.46133334 43.69066666 151.38816 151.38816 0 0 1-5.89824 45.21984 70.56042667 70.56042667 0 0 1-18.35008 30.58346667 75.58485333 75.58485333 0 0 1-31.67573334 17.47626667 169.95669333 169.95669333 0 0 1-46.53056 5.46133333h-43.69066666v86.07061333a21.84533333 21.84533333 0 0 1-6.33514667 15.29173334 28.61738667 28.61738667 0 0 1-21.84533333 6.77205333 27.52512 27.52512 0 0 1-21.84533334-7.20896 21.84533333 21.84533333 0 0 1-6.33514666-14.85482667z m55.26869333 116.87253333h43.69066667a46.96746667 46.96746667 0 0 0 37.13706666-11.79648 60.07466667 60.07466667 0 0 0 10.04885334-38.88469333 62.91456 62.91456 0 0 0-3.71370667-22.9376 35.82634667 35.82634667 0 0 0-9.8304-14.19946667 37.13706667 37.13706667 0 0 0-15.07328-7.20896 82.13845333 82.13845333 0 0 0-18.56853333-1.96608h-43.69066667z" fill="#12DBDB" p-id="1640"></path><path d="M293.54666667 753.60938667a32.98645333 32.98645333 0 0 1-28.61738667-16.60245334c-79.51701333-139.15477333-10.92266667-231.12362667-7.86432-234.83733333a32.768 32.768 0 1 1 51.99189333 39.97696c-1.52917333 2.18453333-43.69066667 62.69610667 12.88874667 162.31082667a32.768 32.768 0 0 1-12.23338667 43.69066666 33.20490667 33.20490667 0 0 1-16.16554666 5.46133334z" fill="#474747" p-id="1641"></path></svg>