<?xml version="1.0" standalone="no"?><!DOCTYPE svg PUBLIC "-//W3C//DTD SVG 1.1//EN" "http://www.w3.org/Graphics/SVG/1.1/DTD/svg11.dtd"><svg t="1721134720366" class="icon" viewBox="0 0 1024 1024" version="1.1" xmlns="http://www.w3.org/2000/svg" p-id="1860" xmlns:xlink="http://www.w3.org/1999/xlink" width="200" height="200"><path d="M303.9 955.6c-63.8 0-123.5-25.1-168.2-70.5l-4.1-4.2C87.5 836 63.5 776.5 64 713.5c0.6-63 25.6-122 70.5-166.1l420.3-411.5c44.3-43.6 103-67.6 165.2-67.6 63.8 0 123.5 25 168.2 70.5l4.2 4.2c44.1 44.9 68.1 104.3 67.5 167.3-0.6 63-25.6 122-70.5 166.1L469.1 888.1c-44.3 43.5-103 67.5-165.2 67.5z m416.2-837.9c-49.2 0-95.6 19-130.7 53.5L169.1 582.6c-35.5 34.9-55.3 81.6-55.8 131.4-0.4 49.8 18.5 96.8 53.5 132.4l4.1 4.2c35.3 36 82.6 55.8 133 55.8 49.2 0 95.6-19 130.7-53.5l420.3-411.5c35.5-34.9 55.3-81.6 55.8-131.4 0.4-49.8-18.5-96.8-53.5-132.4l-4.2-4.2c-35.2-35.9-82.5-55.7-132.9-55.7z" fill="#e6e6e6" p-id="1861"></path><path d="M630.8 698.9c-10.2 0-19.7-6.4-23.3-16.5-19-54.2-179.7-197.4-276.5-274.9-10.6-8.5-12.3-24-3.8-34.6 8.5-10.6 24-12.3 34.6-3.8 26.8 21.4 262.3 211.8 292.2 297.1 4.5 12.8-2.3 26.9-15.1 31.4-2.7 0.8-5.4 1.3-8.1 1.3zM543.8 412.9c-6.3 0-12.6-2.4-17.4-7.2-9.6-9.6-9.6-25.2 0-34.9l73.6-73.6c9.6-9.6 25.2-9.6 34.8 0 9.6 9.6 9.6 25.2 0 34.8l-73.6 73.6c-4.8 4.9-11.1 7.3-17.4 7.3zM730 236.2c0 21.8-17.6 39.4-39.4 39.4-21.8 0-39.4-17.6-39.4-39.4 0-21.8 17.6-39.4 39.4-39.4 21.7 0 39.4 17.6 39.4 39.4z" fill="#e6e6e6" p-id="1862"></path></svg>
