<?xml version="1.0" standalone="no"?><!DOCTYPE svg PUBLIC "-//W3C//DTD SVG 1.1//EN" "http://www.w3.org/Graphics/SVG/1.1/DTD/svg11.dtd"><svg t="1715322668394" class="icon" viewBox="0 0 1024 1024" version="1.1" xmlns="http://www.w3.org/2000/svg" p-id="3017" xmlns:xlink="http://www.w3.org/1999/xlink" width="200" height="200"><path d="M392.94293333 923.78453333a308.45610667 308.45610667 0 0 1-308.0192-308.23765333c0-266.73152 272.62976-560.55125333 283.98933334-573.00309333A31.45728 31.45728 0 0 1 393.37984 31.40266667a32.768 32.768 0 0 1 24.24832 10.92266666c7.20896 8.30122667 177.16565333 202.50624 250.56597333 405.66784a32.768 32.768 0 1 1-61.60384 21.84533334c-53.30261333-147.89290667-165.15072-295.34890667-214.30272-355.86048-65.536 77.76938667-241.82784 303.65013333-241.82784 500.25813333a242.92010667 242.92010667 0 0 0 242.4832 242.70165333 238.98794667 238.98794667 0 0 0 112.50346667-27.74357333 32.768 32.768 0 0 1 30.58346667 58.10858667 309.98528 309.98528 0 0 1-143.08693334 36.48170666z" fill="#474747" p-id="3018"></path><path d="M527.51018667 502.60650667a136.31488 136.31488 0 0 1 59.63776 12.23338666 116.21717333 116.21717333 0 0 1 41.94304 33.20490667 143.74229333 143.74229333 0 0 1 24.68522666 49.37045333 240.29866667 240.29866667 0 0 1 0 123.64458667 143.96074667 143.96074667 0 0 1-24.68522666 49.80736 118.62016 118.62016 0 0 1-41.94304 33.20490667 136.31488 136.31488 0 0 1-59.63776 12.01493333 138.28096 138.28096 0 0 1-59.20085334-11.57802667 119.71242667 119.71242667 0 0 1-42.16149333-32.54954666 141.55776 141.55776 0 0 1-25.55904-49.80736 221.29322667 221.29322667 0 0 1-8.51968-62.91456 242.70165333 242.70165333 0 0 1 7.64586667-61.60384A139.81013333 139.81013333 0 0 1 424.61866667 548.0448a113.59573333 113.59573333 0 0 1 41.72458666-33.20490667 140.02858667 140.02858667 0 0 1 61.16693334-12.23338666z m0 264.98389333a75.80330667 75.80330667 0 0 0 37.57397333-8.30122667 67.72053333 67.72053333 0 0 0 24.46677333-21.84533333 98.95936 98.95936 0 0 0 13.1072-34.07872 212.11818667 212.11818667 0 0 0 3.93216-41.94304 204.03541333 204.03541333 0 0 0-4.36906666-42.5984 111.19274667 111.19274667 0 0 0-13.54410667-34.95253333 69.68661333 69.68661333 0 0 0-24.46677333-23.37450667 82.79381333 82.79381333 0 0 0-73.61877334 0 71.65269333 71.65269333 0 0 0-24.46677333 23.37450667 107.26058667 107.26058667 0 0 0-13.54410667 34.29717333 196.608 196.608 0 0 0-4.36906666 41.72458667 200.54016 200.54016 0 0 0 3.93216 39.54005333 109.22666667 109.22666667 0 0 0 13.1072 34.95253333A74.92949333 74.92949333 0 0 0 490.15466667 758.19690667a69.68661333 69.68661333 0 0 0 37.35552 9.39349333zM884.68138667 782.88213333c0 16.60245333-4.80597333 24.68522667-14.41792 24.68522667h-155.75722667c-4.58752 0-8.51968-3.2768-12.01493333-9.8304a43.69066667 43.69066667 0 0 1-4.58752-23.59296 82.79381333 82.79381333 0 0 1 2.40298666-13.76256 42.16149333 42.16149333 0 0 1 6.5536-13.32565333 81.70154667 81.70154667 0 0 1 12.67029334-12.67029334l23.15605333-20.31616c8.73813333-7.86432 17.91317333-16.60245333 27.74357333-26.43285333a292.72746667 292.72746667 0 0 0 26.86976-30.58346667 184.81152 184.81152 0 0 0 20.53461334-32.768 74.27413333 74.27413333 0 0 0 8.08277333-33.20490666 36.70016 36.70016 0 0 0-8.73813333-25.55904 31.67573333 31.67573333 0 0 0-24.02986667-9.61194667 28.61738667 28.61738667 0 0 0-24.68522667 10.92266667 50.89962667 50.89962667 0 0 0-8.73813333 32.54954666 26.43285333 26.43285333 0 0 1-5.89824 19.44234667 28.39893333 28.39893333 0 0 1-20.09770667 5.67978667 38.88469333 38.88469333 0 0 1-23.37450666-5.02442667 26.2144 26.2144 0 0 1-6.11669334-20.09770667 94.80874667 94.80874667 0 0 1 23.15605334-67.06517333 91.09504 91.09504 0 0 1 70.56042666-24.68522667 81.26464 81.26464 0 0 1 61.60384 21.84533334 82.57536 82.57536 0 0 1 21.84533334 59.63776 90.65813333 90.65813333 0 0 1-5.02442667 29.92810666 187.86986667 187.86986667 0 0 1-13.32565333 29.70965334 259.74101333 259.74101333 0 0 1-19.00544 28.61738666c-6.99050667 9.17504-14.19946667 17.91317333-21.84533334 25.99594667s-18.13162667 19.22389333-27.96202666 28.39893333-20.09770667 18.13162667-30.80192 26.86976h106.82368c9.61194667-0.43690667 14.41792 7.86432 14.41792 24.24832z" fill="#12DBDB" p-id="3019"></path><path d="M262.52629333 753.60938667a32.98645333 32.98645333 0 0 1-28.61738666-16.60245334c-79.51701333-139.15477333-10.92266667-231.12362667-7.86432-234.83733333a32.768 32.768 0 1 1 51.99189333 39.97696c-1.74762667 2.18453333-43.69066667 62.69610667 12.88874667 162.31082667a32.768 32.768 0 0 1-12.23338667 43.69066666 33.20490667 33.20490667 0 0 1-16.16554667 5.46133334z" fill="#474747" p-id="3020"></path></svg>