<?xml version="1.0" standalone="no"?><!DOCTYPE svg PUBLIC "-//W3C//DTD SVG 1.1//EN" "http://www.w3.org/Graphics/SVG/1.1/DTD/svg11.dtd"><svg t="1715322500550" class="icon" viewBox="0 0 1024 1024" version="1.1" xmlns="http://www.w3.org/2000/svg" p-id="2721" xmlns:xlink="http://www.w3.org/1999/xlink" width="200" height="200"><path d="M653.90728533 325.58648889a128.15928889 128.15928889 0 1 1 128.15928889-128.15928889 128.39230578 128.39230578 0 0 1-128.15928889 128.15928889z m0-186.41351111a58.25422222 58.25422222 0 1 0 58.25422222 58.25422222 58.25422222 58.25422222 0 0 0-58.25422222-58.25422222z" fill="#474747" p-id="2722"></path><path d="M817.01910755 605.20675555h-326.22364444a34.95253333 34.95253333 0 0 1-34.95253333-34.95253333v-163.11182222a103.92553245 103.92553245 0 0 1 103.92553244-104.8576h188.27764623a103.92553245 103.92553245 0 0 1 103.92553244 103.92553245v163.11182222a34.95253333 34.95253333 0 0 1-34.95253334 35.88460088z m-291.2711111-69.90506666h256.31857777v-129.09135644A34.02046578 34.02046578 0 0 0 748.04610845 372.18986667h-188.27764623a34.25348267 34.25348267 0 0 0-34.02046577 34.02046578z" fill="#474747" p-id="2723"></path><path d="M653.90728533 954.73208889a128.39230578 128.39230578 0 0 1-128.15928888-128.15928889v-256.31857778a34.95253333 34.95253333 0 0 1 34.95253333-34.95253333h186.41351111a34.95253333 34.95253333 0 0 1 34.95253333 34.95253333v256.31857778a128.39230578 128.39230578 0 0 1-128.15928889 128.15928889z m-58.25422222-349.52533334v221.36604445a58.25422222 58.25422222 0 1 0 116.50844444 0V605.20675555z" fill="#474747" p-id="2724"></path><path d="M863.62248533 954.73208889h-605.84391111a34.95253333 34.95253333 0 0 1-34.95253333-34.95253334v-396.1287111a34.95253333 34.95253333 0 0 1 69.90506666 0V884.82702222h570.89137778a34.95253333 34.95253333 0 0 1 0 69.90506667z" fill="#474747" p-id="2725"></path><path d="M367.76254578 617.78966755a35.18555022 35.18555022 0 0 1-23.30168889-9.55369244l-207.38503111-193.87005156a34.95253333 34.95253333 0 0 1 46.60337777-51.26371555l207.38503112 194.10306845a34.71951645 34.71951645 0 0 1 1.63111822 49.39958044 34.25348267 34.25348267 0 0 1-24.93280711 11.18481066z" fill="#12DBDB" p-id="2726"></path><path d="M257.77857422 954.73208889h-93.20675555a34.95253333 34.95253333 0 0 1 0-69.90506667h93.20675555a34.95253333 34.95253333 0 1 1 0 69.90506667z" fill="#474747" p-id="2727"></path></svg>