<?xml version="1.0" standalone="no"?><!DOCTYPE svg PUBLIC "-//W3C//DTD SVG 1.1//EN" "http://www.w3.org/Graphics/SVG/1.1/DTD/svg11.dtd"><svg t="1721617768141" class="icon" viewBox="0 0 1024 1024" version="1.1" xmlns="http://www.w3.org/2000/svg" p-id="15756" xmlns:xlink="http://www.w3.org/1999/xlink" width="200" height="200"><path d="M915.551 480.467c-19.674 0-36.507 12.697-42.648 30.422h-92.688c-3.413-59.474-26.384-113.69-62.664-156.122L859.256 217.17c6.028 3.089 12.965 4.805 20.242 4.805 25.021 0 45.264-20.471 45.264-45.635s-20.359-45.524-45.264-45.524c-25.018 0-45.264 20.361-45.264 45.524 0 6.748 1.479 13.153 4.094 18.985L696.51 333.036a269.248 269.248 0 0 0-36.163-28.136l38.551-68.969c2.505 0.454 5.12 0.683 7.848 0.683 25.018 0 45.264-20.358 45.264-45.521 0-25.16-20.245-45.521-45.264-45.521-25.021 0-45.264 20.361-45.264 45.521 0 11.553 4.208 21.961 11.258 29.966l-38.781 68.969c-34.573-17.039-73.581-26.647-114.637-26.647-11.94 0-23.769 0.8-35.371 2.403l-17.056-87.5c19.902-9.951 33.548-30.539 33.548-54.329 0-33.511-27.065-60.731-60.389-60.731-33.321 0-60.389 27.22-60.389 60.731 0 32.598 25.589 59.248 57.774 60.621l16.946 87.04c-44.469 11.437-84.388 34.428-116.457 65.423l-34.69-32.138a33.773 33.773 0 0 0 1.366-9.61c0-18.872-15.126-34.198-33.892-34.198-18.763 0-34.002 15.326-34.002 34.198 0 18.875 15.239 34.087 34.002 34.087 4.211 0 8.419-0.803 12.17-2.176l34.687 32.141c-24.564 29.966-42.646 65.536-52.087 104.539l-29.229-5.375c-3.41-21.731-22.059-38.43-44.693-38.43-25.021 0-45.264 20.471-45.264 45.521 0 25.16 20.242 45.521 45.264 45.521 16.832 0 31.501-9.148 39.235-22.877l29.343 5.375c-1.252 10.64-2.047 21.504-2.047 32.485 0 45.408 11.486 88.07 31.614 125.357l-123.394 76.976c-10.804-10.524-25.589-16.929-41.737-16.929-33.324 0-60.389 27.22-60.389 60.734 0 33.511 27.066 60.734 60.389 60.734 33.321 0 60.389-27.223 60.389-60.734 0-6.292-0.912-12.467-2.732-18.185l123.397-76.976c8.643 12.467 18.422 24.134 28.999 34.771 25.135 25.39 55.5 45.521 89.278 58.901l-31.504 96.764c-24.564 0.573-44.238 20.818-44.238 45.521 0 25.163 20.356 45.521 45.377 45.521 25.018 0 45.264-20.358 45.264-45.521 0-14.753-6.94-27.793-17.741-36.03l31.501-96.875c21.267 5.719 43.671 8.691 66.758 8.691 10.12 0 20.129-0.57 30.024-1.716l2.388 13.843c-8.416 6.292-13.99 16.239-13.99 27.563 0 18.875 15.242 34.201 34.005 34.201 18.766 0 34.005-15.326 34.005-34.201a34.186 34.186 0 0 0-24.337-32.825l-2.388-13.84c44.125-10.407 83.928-31.911 116.34-61.647l71.878 70.685a60.557 60.557 0 0 0-8.075 30.309c0 33.511 27.068 60.621 60.389 60.621 33.324 0 60.389-27.109 60.389-60.621 0-33.514-26.952-60.734-60.389-60.734-11.485 0-22.176 3.203-31.274 8.808l-71.764-70.685c36.964-42.549 60.389-97.334 63.802-157.382h92.574c6.255 17.726 22.974 30.309 42.648 30.309 25.021 0 45.264-20.358 45.264-45.521 0.003-25.164-20.239-45.522-45.26-45.522zM527.085 719.83c-107.321 0-194.348-86.969-194.348-194.218 0-107.252 87.027-194.224 194.348-194.224s194.351 86.972 194.351 194.224c0 107.249-87.031 194.218-194.351 194.218z m0.457-269.102c-41.169 0-74.478 33.499-74.478 74.902s33.309 74.902 74.478 74.902 74.475-33.499 74.475-74.902-33.306-74.902-74.475-74.902z" fill="#d81e06" p-id="15757"></path></svg>