<?xml version="1.0" standalone="no"?><!DOCTYPE svg PUBLIC "-//W3C//DTD SVG 1.1//EN" "http://www.w3.org/Graphics/SVG/1.1/DTD/svg11.dtd"><svg t="1721206129954" class="icon" viewBox="0 0 1024 1024" version="1.1" xmlns="http://www.w3.org/2000/svg" p-id="8231" xmlns:xlink="http://www.w3.org/1999/xlink" width="200" height="200"><path d="M736.688365 254.995625c-14.803147-8.855692-33.918507-3.975545-42.763966 10.80816-8.835226 14.783705-4.016477 33.958416 10.746762 42.824341 24.727171 14.864546 88.913029 65.182558 88.913029 118.835526l0 407.565463c0 34.375925-32.697703 62.345953-72.878844 62.345953L497.197876 897.375068 497.197876 635.353422l18.504446 0c17.253966 0 31.233352-13.980409 31.233352-31.234375s-13.980409-31.233352-31.233352-31.233352l-41.645492 0c-1.385557 0-2.708692 0.232291-4.046153 0.407276-1.338485-0.174985-2.660596-0.407276-4.046153-0.407276-17.253966 0-31.233352 13.980409-31.233352 31.233352l0 293.254997L304.253492 897.374044c-40.181141 0-72.878844-27.970028-72.878844-62.345953L231.374648 635.353422l130.476657 0c17.253966 0 31.233352-13.980409 31.233352-31.234375s-13.980409-31.233352-31.233352-31.233352L231.374648 572.885695l0-145.422044c0-48.843428 65.080228-102.912881 90.122577-119.597889 14.386662-9.526981 18.321274-28.90533 8.794293-43.281759-9.526981-14.386662-28.895097-18.331507-43.281759-8.794293-12.089339 8.001231-118.102838 80.840166-118.102838 171.673941l0 407.565463c0 68.822458 60.718897 124.81368 135.346571 124.81368l416.451854 0c74.627674 0 135.346571-55.991222 135.346571-124.81368L856.051917 427.462628C856.051917 327.233879 741.558279 257.893628 736.688365 254.995625z" fill="#13227a" p-id="8232"></path><path d="M325.075727 216.268602c17.253966 0 31.233352-13.980409 31.233352-31.234375 0-32.036647 30.237675-58.096163 67.399039-58.096163l177.540556 0c37.161365 0 67.399039 26.058492 67.399039 58.096163 0 17.253966 13.980409 31.234375 31.234375 31.234375s31.233352-13.980409 31.233352-31.234375c0-66.484204-58.258868-120.56389-129.866766-120.56389L423.709141 64.470337c-71.607898 0-129.866766 54.079686-129.866766 120.56389C293.842375 202.288193 307.822784 216.268602 325.075727 216.268602z" fill="#13227a" p-id="8233"></path><path d="M606.181009 240.252853c17.253966 0 31.234375-13.980409 31.234375-31.233352s-13.980409-31.233352-31.234375-31.233352L418.777829 177.786149c-17.253966 0-31.234375 13.980409-31.234375 31.233352s13.980409 31.233352 31.234375 31.233352L606.181009 240.252853z" fill="#13227a" p-id="8234"></path><path d="M408.366711 302.242695c-17.253966 0-31.233352 13.980409-31.233352 31.234375l0 31.233352c0 17.253966 13.980409 31.234375 31.233352 31.234375s31.234375-13.980409 31.234375-31.234375l0-31.233352C439.600063 316.223105 425.620677 302.242695 408.366711 302.242695z" fill="#13227a" p-id="8235"></path><path d="M616.592127 302.242695c-17.253966 0-31.234375 13.980409-31.234375 31.234375l0 31.233352c0 17.253966 13.980409 31.234375 31.234375 31.234375 17.253966 0 31.233352-13.980409 31.233352-31.234375l0-31.233352C647.826502 316.223105 633.846092 302.242695 616.592127 302.242695z" fill="#13227a" p-id="8236"></path><path d="M512.169869 524.44852c43.963281 0 75.105558-30.308283 86.579891-48.223305 9.222035-14.396895 5.03262-33.358759-9.242502-42.753733-14.270005-9.405207-33.577746-5.409197-43.159986 8.754385-0.132006 0.193405-13.614066 19.754926-34.177404 19.754926-19.99438 0-32.428573-18.107403-33.267685-19.36914-9.175987-14.427594-28.285207-18.819624-42.834574-9.760295-14.655791 9.099239-19.155269 28.356838-10.04989 43.007513C437.227016 493.9059 467.992717 524.44852 512.169869 524.44852z" fill="#13227a" p-id="8237"></path></svg>