<?xml version="1.0" standalone="no"?><!DOCTYPE svg PUBLIC "-//W3C//DTD SVG 1.1//EN" "http://www.w3.org/Graphics/SVG/1.1/DTD/svg11.dtd"><svg t="1715322368293" class="icon" viewBox="0 0 1024 1024" version="1.1" xmlns="http://www.w3.org/2000/svg" p-id="2574" xmlns:xlink="http://www.w3.org/1999/xlink" width="200" height="200"><path d="M341.16949333 923.78453333A308.67456 308.67456 0 0 1 32.93184 615.54688c0-266.73152 272.62976-560.55125333 283.98933333-573.00309333a32.98645333 32.98645333 0 0 1 48.49664 0c7.20896 8.30122667 177.38410667 202.50624 250.56597334 405.66784a32.768 32.768 0 1 1-61.60384 21.84533333c-53.30261333-147.67445333-165.15072-295.34890667-214.08426667-355.86048-65.536 77.76938667-242.04629333 303.65013333-242.04629333 500.25813333a242.92010667 242.92010667 0 0 0 242.92010666 243.79392 240.29866667 240.29866667 0 0 0 112.50346667-27.74357333 32.768 32.768 0 0 1 30.36501333 58.10858667 309.11146667 309.11146667 0 0 1-142.86848 35.17098666z" fill="#474747" p-id="2575"></path><path d="M555.69066667 692.00554667h-43.69066667a35.60789333 35.60789333 0 0 1-21.84533333-5.46133334 21.84533333 21.84533333 0 0 1-6.77205334-18.78698666 24.02986667 24.02986667 0 0 1 7.20896-19.6608A34.73408 34.73408 0 0 1 512 643.072h70.99733333a26.43285333 26.43285333 0 0 1 23.37450667 8.95658667 58.9824 58.9824 0 0 1 5.89824 31.02037333 195.07882667 195.07882667 0 0 1-6.5536 51.11808 109.22666667 109.22666667 0 0 1-21.84533333 42.5984 103.98378667 103.98378667 0 0 1-38.88469334 29.4912 139.37322667 139.37322667 0 0 1-58.10858666 10.70421333 160.5632 160.5632 0 0 1-60.51157334-10.92266666A131.072 131.072 0 0 1 380.928 774.144a137.84405333 137.84405333 0 0 1-29.05429333-48.71509333 196.608 196.608 0 0 1-9.8304-64.00682667 200.10325333 200.10325333 0 0 1 8.51968-62.04074667 147.01909333 147.01909333 0 0 1 27.96202666-50.02581333 129.54282667 129.54282667 0 0 1 44.78293334-33.64181333 142.43157333 142.43157333 0 0 1 60.73002666-12.45184 192.02048 192.02048 0 0 1 36.48170667 3.2768 117.30944 117.30944 0 0 1 36.26325333 14.19946666 196.608 196.608 0 0 1 21.84533334 15.51018667 91.7504 91.7504 0 0 1 15.72864 16.60245333 32.54954667 32.54954667 0 0 1 6.5536 16.16554667 13.98101333 13.98101333 0 0 1-6.99050667 13.32565333 33.42336 33.42336 0 0 1-20.31616 8.95658667 28.61738667 28.61738667 0 0 1-12.01493333-1.31072 23.37450667 23.37450667 0 0 1-10.92266667-6.77205333 101.5808 101.5808 0 0 0-32.11264-24.90368 89.34741333 89.34741333 0 0 0-35.60789333-6.5536 77.33248 77.33248 0 0 0-33.64181334 7.64586666 81.48309333 81.48309333 0 0 0-27.08821333 21.84533334 106.60522667 106.60522667 0 0 0-19.44234667 33.20490666 136.75178667 136.75178667 0 0 0-6.77205333 43.69066667A144.39765333 144.39765333 0 0 0 402.77333333 704.23893333a98.52245333 98.52245333 0 0 0 18.56853334 34.07872 78.86165333 78.86165333 0 0 0 28.39893333 21.84533334 84.32298667 84.32298667 0 0 0 36.70016 7.64586666 61.82229333 61.82229333 0 0 0 26.86976-5.67978666 75.3664 75.3664 0 0 0 21.84533333-15.72864 72.96341333 72.96341333 0 0 0 15.29173334-23.81141334 85.1968 85.1968 0 0 0 5.24288-30.58346666zM648.53333333 508.28629333a19.44234667 19.44234667 0 0 1 6.33514667-15.29173333 31.45728 31.45728 0 0 1 20.53461333-5.24288 32.33109333 32.33109333 0 0 1 21.84533334 5.46133333 20.31616 20.31616 0 0 1 6.11669333 15.29173334v285.51850666a15.07328 15.07328 0 0 1-7.20896 12.67029334 32.768 32.768 0 0 1-19.6608 5.24288 32.11264 32.11264 0 0 1-19.44234667-5.24288 14.63637333 14.63637333 0 0 1-7.42741333-12.67029334zM799.26613333 708.608a163.84 163.84 0 0 0 1.52917334 24.24832 49.80736 49.80736 0 0 0 6.33514666 17.69472 28.18048 28.18048 0 0 0 12.45184 11.14112 47.40437333 47.40437333 0 0 0 20.53461334 3.71370667 64.22528 64.22528 0 0 0 18.78698666-2.40298667 32.768 32.768 0 0 0 14.85482667-8.73813333 43.69066667 43.69066667 0 0 0 9.8304-16.82090667 83.66762667 83.66762667 0 0 0 3.71370667-26.86976v-114.688a15.29173333 15.29173333 0 0 1 7.42741333-12.67029333 36.0448 36.0448 0 0 1 37.79242667 0 15.51018667 15.51018667 0 0 1 7.42741333 12.45184v198.13717333a14.85482667 14.85482667 0 0 1-7.86432 12.67029333 33.42336 33.42336 0 0 1-19.00544 5.24288 30.80192 30.80192 0 0 1-18.35008-5.24288 14.63637333 14.63637333 0 0 1-7.42741333-12.67029333v-21.84533333a118.62016 118.62016 0 0 1-9.17504 14.85482666 65.536 65.536 0 0 1-12.88874667 13.1072 61.60384 61.60384 0 0 1-17.03936 9.61194667 62.69610667 62.69610667 0 0 1-21.84533333 3.71370667 85.85216 85.85216 0 0 1-30.36501334-4.80597334 74.49258667 74.49258667 0 0 1-25.34058666-15.94709333 77.11402667 77.11402667 0 0 1-17.25781334-26.2144 97.43018667 97.43018667 0 0 1-6.99050666-35.82634667v-134.56725333a15.72864 15.72864 0 0 1 6.99050666-12.88874667 33.20490667 33.20490667 0 0 1 19.00544-5.02442666 35.17098667 35.17098667 0 0 1 19.44234667 5.02442666 15.51018667 15.51018667 0 0 1 7.42741333 12.88874667z" fill="#12DBDB" p-id="2576"></path><path d="M210.5344 753.60938667a32.33109333 32.33109333 0 0 1-28.39893333-16.60245334c-79.51701333-139.15477333-10.92266667-231.12362667-8.08277334-234.83733333a32.768 32.768 0 1 1 51.99189334 39.97696c-1.52917333 2.18453333-43.69066667 62.69610667 12.88874666 162.31082667a32.768 32.768 0 0 1-12.23338666 43.69066666 33.20490667 33.20490667 0 0 1-16.16554667 5.46133334z" fill="#474747" p-id="2577"></path></svg>