<?xml version="1.0" standalone="no"?><!DOCTYPE svg PUBLIC "-//W3C//DTD SVG 1.1//EN" "http://www.w3.org/Graphics/SVG/1.1/DTD/svg11.dtd"><svg t="1715322605500" class="icon" viewBox="0 0 1024 1024" version="1.1" xmlns="http://www.w3.org/2000/svg" p-id="2871" xmlns:xlink="http://www.w3.org/1999/xlink" width="200" height="200"><path d="M147.08018773 474.82521707a32.51438827 32.51438827 0 0 1-31.43057493-24.06064747 320.15833813 320.15833813 0 0 1-11.05489173-78.9015808 257.51395093 257.51395093 0 0 1 255.563088-260.11510187h1.95086293A257.94747627 257.94747627 0 0 1 507.7731296 158.13507947a257.29718827 257.29718827 0 0 1 147.61532053-48.33805654H659.50693973a257.7307136 257.7307136 0 0 1 256.4301376 255.563088 336.84905707 336.84905707 0 0 1-8.67050346 78.25129387 32.51438827 32.51438827 0 1 1-63.2946752-14.30633067 280.05725973 280.05725973 0 0 0 6.9364032-63.2946752A192.9187008 192.9187008 0 0 0 659.50693973 174.8257984h-1.51733866a192.05165013 192.05165013 0 0 0-126.37258667 48.98834453 32.73114987 32.73114987 0 0 1-43.35251733 0 195.0863264 195.0863264 0 0 0-127.02287467-46.82071786 192.48517547 192.48517547 0 0 0-190.96783787 195.0863264 239.73941867 239.73941867 0 0 0 8.88726614 62.42762453 32.73114987 32.73114987 0 0 1-22.97683414 39.88431573 37.71669013 37.71669013 0 0 1-9.1040288 0.43352534zM514.27600747 913.11916373a32.73114987 32.73114987 0 0 1-18.64158294-5.85258986 1487.42485973 1487.42485973 0 0 1-234.32035413-210.90999467 32.51438827 32.51438827 0 0 1 48.77158187-43.35251733 1419.79493333 1419.79493333 0 0 0 204.62388053 187.06611093 1259.6073824 1259.6073824 0 0 0 207.0082688-190.31754987 32.51438827 32.51438827 0 0 1 49.63863147 42.05194134 1288.87033173 1288.87033173 0 0 1-238.43884374 215.24524693 33.38143787 33.38143787 0 0 1-18.64158186 6.06935253z" fill="#474747" p-id="2872"></path><path d="M585.80765973 705.0270816a32.51438827 32.51438827 0 0 1-29.6964736-19.29186987L496.28471253 551.12564693l-56.14150933 96.02582507a31.6473376 31.6473376 0 0 1-29.04618667 16.04043093 32.51438827 32.51438827 0 0 1-28.179136-17.77453226l-93.42467413-186.41582294L232.05112107 637.83068053a32.2976256 32.2976256 0 0 1-30.78028694 21.6762592H111.53112427a32.94791253 32.94791253 0 0 1-32.73115094-32.2976256 32.2976256 32.2976256 0 0 1 32.2976256-30.12999893h66.1125888l74.56632854-233.45330453a31.86410027 31.86410027 0 0 1 28.39589866-21.6762592 32.51438827 32.51438827 0 0 1 31.6473376 17.77453226l102.31194027 203.97359254L472.22406613 464.42061227a32.2976256 32.2976256 0 0 1 29.91323627-16.04043094 32.73114987 32.73114987 0 0 1 27.96237333 19.29186987l51.3727328 116.40150827 81.93625707-245.1584832a33.1646752 33.1646752 0 0 1 28.61266133-21.6762592 32.2976256 32.2976256 0 0 1 31.21381227 17.77453226l101.01136427 197.90424h88.22237226a32.51438827 32.51438827 0 0 1 0 65.02877547h-108.38129173a32.73114987 32.73114987 0 0 1-29.04618667-17.77453227L700.6918304 431.90622507 616.1544224 682.91729813a32.51438827 32.51438827 0 0 1-29.26294933 21.6762592z" fill="#12DBDB" p-id="2873"></path></svg>