<?xml version="1.0" standalone="no"?><!DOCTYPE svg PUBLIC "-//W3C//DTD SVG 1.1//EN" "http://www.w3.org/Graphics/SVG/1.1/DTD/svg11.dtd"><svg t="1721620237825" class="icon" viewBox="0 0 1024 1024" version="1.1" xmlns="http://www.w3.org/2000/svg" p-id="1519" xmlns:xlink="http://www.w3.org/1999/xlink" width="200" height="200"><path d="M278.98311111 919.77955555a34.95253333 34.95253333 0 0 1-34.95253333-34.95253333V185.77635555a34.95253333 34.95253333 0 0 1 69.90506667 0v699.05066667a34.95253333 34.95253333 0 0 1-34.95253334 34.95253333z" fill="#12DBDB" p-id="1520"></path><path d="M372.18986667 197.4272h-186.41351112a34.95253333 34.95253333 0 0 1 0-69.90506667h186.41351112a34.95253333 34.95253333 0 0 1 0 69.90506667zM372.18986667 919.77955555h-186.41351112a34.95253333 34.95253333 0 0 1 0-69.90506666h186.41351112a34.95253333 34.95253333 0 0 1 0 69.90506666zM675.11182222 360.53902222a151.46097778 151.46097778 0 1 1 151.46097778-151.46097777 151.69399467 151.69399467 0 0 1-151.46097778 151.46097777z m0-233.01688889a81.55591111 81.55591111 0 1 0 81.55591111 81.55591112A81.55591111 81.55591111 0 0 0 675.11182222 127.52213333z" fill="#474747" p-id="1521"></path><path d="M838.22364445 663.46097778H512a34.95253333 34.95253333 0 0 1-34.95253333-34.95253333v-186.41351112a105.09061689 105.09061689 0 0 1 104.8576-104.8576h186.41351111a105.09061689 105.09061689 0 0 1 104.8576 104.8576v186.41351112a34.95253333 34.95253333 0 0 1-34.95253333 34.95253333z m-291.27111112-69.90506667h256.31857778V442.09493333a34.95253333 34.95253333 0 0 0-34.95253333-34.95253333h-186.41351111a34.95253333 34.95253333 0 0 0-34.95253334 34.95253333z" fill="#474747" p-id="1522"></path><path d="M768.31857778 966.38293333h-186.41351111a34.95253333 34.95253333 0 0 1-34.95253334-34.95253333V628.50844445a34.95253333 34.95253333 0 0 1 34.95253334-34.95253334h186.41351111a34.95253333 34.95253333 0 0 1 34.95253333 34.95253334v302.92195555a34.95253333 34.95253333 0 0 1-34.95253333 34.95253333z m-151.46097778-69.90506666h116.50844445v-233.01688889h-116.50844445z" fill="#474747" p-id="1523"></path></svg>