<?xml version="1.0" standalone="no"?><!DOCTYPE svg PUBLIC "-//W3C//DTD SVG 1.1//EN" "http://www.w3.org/Graphics/SVG/1.1/DTD/svg11.dtd"><svg t="1721810201404" class="icon" viewBox="0 0 1792 1024" version="1.1" xmlns="http://www.w3.org/2000/svg" p-id="1250" xmlns:xlink="http://www.w3.org/1999/xlink" width="350" height="200"><path d="M390.352481 304.118796c-57.422431 0-105.641266 19.807737-144.656506 59.623291s-58.6229 90.235248-58.6229 151.459163c0 68.226651 24.609613 122.247753 73.82884 162.063306 38.214928 31.012114 82.032044 46.61821 131.651426 46.618211 56.021884 0 103.640485-20.207894 143.055881-60.423603 39.415397-40.215709 59.023056-90.03517 59.023056-149.058226 0-58.822978-19.807737-108.44236-59.423212-149.258304-39.815553-40.815944-88.034388-61.023837-144.856585-61.023838z" fill="#3BE3C3" p-id="1251"></path><path d="M1280.700274 0H512C230.490035 0 0 230.490035 0 512c0 281.710043 230.490035 512 512 512h768.700274c281.710043 0 512-230.490035 512-512S1562.210238 0 1280.700274 0zM619.241891 743.890582c-62.224306 62.424385-137.853849 93.636577-226.68855 93.636577-93.036342 0-170.26651-32.012505-231.890582-96.037515-61.624072-64.02501-92.436108-140.254787-92.436108-228.289175 0-59.023056 14.405627-113.244236 43.016803-162.863619 28.611176-49.619383 68.026573-88.834701 118.24619-117.645955 50.219617-29.011333 104.240719-43.41696 162.063306-43.41696 87.634232 0 163.063697 31.612349 226.288394 94.837046 63.024619 63.224697 94.636968 140.254787 94.636968 231.290348 0 89.835092-31.012114 166.064869-93.236421 228.489253z m442.973037-423.565455h-112.84408v501.595936h-119.646737V320.325127h-110.042986v-115.845252h342.533803v115.845252z m151.85932 301.717859c18.007034 32.012505 43.41696 57.022274 76.229777 75.229386 32.812818 18.207112 69.42712 27.210629 109.442751 27.210629 34.213365 0 65.625635-6.402501 93.836655-19.207503 28.411098-12.805002 59.423212-36.014068 93.436499-69.42712l80.031262 83.032435c-45.817898 44.417351-89.034779 75.429465-129.850723 92.636186-40.815944 17.206721-87.234076 25.810082-139.454474 25.810082-96.437671 0-175.268464-30.41188-236.692458-91.235639-61.423994-60.823759-92.035952-138.85424-92.035952-233.891364 0-61.624072 14.005471-116.245408 42.016413-164.064087s68.026573-86.233685 120.046893-115.445096c52.02032-29.011333 108.242282-43.617038 168.265729-43.617038 51.220008 0 100.439234 10.80422 147.657679 32.212583 47.418523 21.608441 88.034388 52.02032 122.447831 91.835873l-82.4322 78.430637c-56.221962-59.023056-119.246581-88.634623-189.474014-88.634623-59.223134 0-109.042595 20.207894-149.65846 60.423603-40.615866 40.415787-60.823759 90.03517-60.823759 149.058226 0 41.2161 9.003517 77.830403 27.010551 109.64283z" fill="#3BE3C3" p-id="1252"></path><path d="M391.753029 189.073857c-57.822587 0-112.043767 14.405627-162.063306 43.41696C179.470106 261.502149 140.054709 300.717468 111.243454 350.136772c-28.611176 49.619383-43.016803 103.840563-43.016803 162.863619 0 88.034388 30.812036 164.264166 92.436108 228.289175 61.624072 64.02501 138.85424 96.037515 231.890582 96.037515 88.834701 0 164.464244-31.212192 226.68855-93.636577 62.224306-62.424385 93.436499-138.654162 93.436499-228.689332 0-90.835483-31.612349-168.065651-94.636968-231.290347-63.224697-63.024619-138.654162-94.636968-226.288393-94.636968z m143.856193 474.185229c-39.415397 40.215709-87.033998 60.423603-143.055881 60.423603-49.419304 0-93.436499-15.606096-131.651426-46.618211-49.219226-39.815553-73.828839-93.636577-73.82884-162.063306 0-61.223916 19.607659-111.843689 58.6229-151.459163 39.01524-39.815553 87.234076-59.62329 144.656506-59.623291 56.822196 0 105.041032 20.407972 144.656507 61.023838 39.615475 40.615866 59.423212 90.435326 59.423212 149.258304 0.200078 59.223134-19.607659 108.842517-58.822978 149.058226zM719.481047 320.325127h110.042986v501.595936h119.646737V320.325127h113.044158v-115.845252H719.481047zM1397.545916 302.718249c70.227433 0 133.252052 29.611567 189.474014 88.634623l82.4322-78.430637c-34.213365-39.615475-75.029308-70.227433-122.447831-91.835873-47.418523-21.608441-96.637749-32.212583-147.657679-32.212583-60.023447 0-116.245408 14.605705-168.265729 43.617038-52.02032 29.011333-92.23603 67.626417-120.046893 115.445095-28.010942 47.818679-42.016413 102.640094-42.016413 164.064088 0 95.037124 30.611958 173.067605 92.035952 233.891364 61.423994 60.823759 140.254787 91.235639 236.692458 91.235639 52.220399 0 98.638531-8.603361 139.454474-25.810082 40.815944-17.206721 84.032825-48.018757 129.850723-92.636186l-80.031262-83.032435c-34.013286 33.61313-65.025401 56.822196-93.436499 69.42712-28.411098 12.805002-59.62329 19.207503-93.836655 19.207503-40.215709 0-76.629934-9.003517-109.442751-27.210629-32.812818-18.207112-58.222743-43.216882-76.229777-75.229387s-27.010551-68.426729-27.010551-109.642829c0-59.023056 20.207894-108.842517 60.823759-149.058226 40.615866-40.215709 90.435326-60.423603 149.65846-60.423603z" fill="#FFFFFF" p-id="1253"></path></svg>