<?xml version="1.0" standalone="no"?><!DOCTYPE svg PUBLIC "-//W3C//DTD SVG 1.1//EN" "http://www.w3.org/Graphics/SVG/1.1/DTD/svg11.dtd"><svg t="1721810190696" class="icon" viewBox="0 0 1667 1024" version="1.1" xmlns="http://www.w3.org/2000/svg" p-id="5318" xmlns:xlink="http://www.w3.org/1999/xlink" width="325.5859375" height="200"><path d="M1568.643105 98.461538C1505.130977 34.949411 1421.039501 0 1331.980596 0c-89.236313 0-173.150381 34.949411-236.662509 98.461538-38.852391 38.852391-67.060291 85.333333-83.027027 136.072073H933.167013l-39.739432 77.527373-39.029799-77.527373H576.576577c-10.112266-15.61192-22.176022-29.981982-36.191269-43.287596-50.561331-47.900208-122.234234-72.205128-213.067221-72.205128H0V867.525988h256.354816V636.895357h5.677062l94.026334 196.213444V867.525988h164.279972l-15.434511 26.611226h340.801109l39.562023-78.591822 39.91684 78.591822h142.281358c8.515593 10.999307 17.740818 21.288981 27.675676 31.401248 63.512128 63.512128 147.426195 98.461538 236.662509 98.461538 89.236313 0 173.150381-34.949411 236.662508-98.461538s98.461538-147.426195 98.461539-236.662509V334.946639c0-89.058905-34.949411-173.150381-98.28413-236.485101zM400.587665 823.173943l-110.525295-230.63063h-78.059598v230.63063H44.352044V163.392931h282.966043c79.478863 0 140.329868 20.047124 182.553015 59.963964 42.223146 39.91684 63.157311 93.139293 63.157311 159.66736 0 25.724186-3.90298 49.851698-11.70894 72.205128-7.80596 22.35343-17.918226 40.981289-30.336798 55.706168-12.418572 14.724879-24.482328 26.966043-36.368676 36.368676-11.886348 9.402633-23.772696 16.853777-35.659044 21.998614l130.927235 253.693694H400.587665z m116.73458-237.194733c1.596674-1.241857 3.370755-2.483714 4.967429-3.90298 14.192654-11.354123 28.562717-25.724186 42.755371-42.577963 15.789328-18.805267 28.562717-42.223146 38.142758-69.544005 4.435204-12.418572 7.628552-25.369369 10.112266-38.674983l82.139986 134.297991-99.703395 172.26334-78.414415-151.8614zM968.826057 823.173943l-80.188496-158.070686h-6.741511l-79.83368 158.070686h-162.50589l-5.499654-10.467082 143.700624-248.016632-158.602911-259.015939h191.600832l78.769231 156.65142h6.74151l80.188496-156.65142h182.198199l-164.279973 257.064449L1151.55648 823.173943h-182.730423z m661.022869-134.475398c0 163.747748-134.120582 297.86833-297.86833 297.86833-84.446292 0-160.909217-35.659044-215.373527-92.607069h160.5544L1077.932086 563.62578l33.175329-51.803188h444.407485v-176.875953c0-59.431739-23.417879-115.492723-65.818434-157.893278-42.400554-42.400554-98.461538-65.818434-157.893278-65.818434s-115.492723 23.417879-157.893278 65.818434c-17.031185 17.031185-31.046431 36.368676-41.690922 57.302841h-80.720721c41.513514-114.783091 151.683992-197.455301 280.304921-197.455301 163.747748 0 297.86833 134.120582 297.86833 297.86833v353.929314z" fill="#FFFFFF" p-id="5319"></path><path d="M1331.980596 37.078309c-128.620929 0-238.791407 82.672211-280.30492 197.455302h80.72072c10.644491-20.934165 24.659737-40.271656 41.690922-57.302842 42.400554-42.400554 98.461538-65.818434 157.893278-65.818434s115.492723 23.417879 157.893278 65.818434c42.400554 42.400554 65.818434 98.461538 65.818434 157.893278v176.875953H1111.107415l-33.175329 51.803188L1277.161469 894.137214h-160.5544c54.286902 56.948025 130.927235 92.607069 215.373527 92.607069 163.747748 0 297.86833-134.120582 297.86833-297.86833V334.946639c0-163.747748-134.120582-297.86833-297.86833-297.86833z" fill="#3BE3C3" p-id="5320"></path><path d="M994.550243 562.561331l164.279972-257.06445H976.632017l-80.188497 156.651421h-6.918918L810.755371 305.496881H619.509356l158.425502 259.01594-143.700624 248.016632 5.499654 10.64449h162.328482l79.83368-158.070686h6.741511l80.188496 158.070686h182.730423z" fill="#3BE3C3" p-id="5321"></path><path d="M372.024948 315.609148c-18.45045-16.144144-41.513514-24.127512-69.366597-24.127513h-90.655579v181.311158H301.593902c29.449757 0 53.045045-7.628552 70.963271-22.885655 17.918226-15.257103 26.966043-37.433125 26.966043-66.350658 0-29.272349-9.225225-51.980596-27.498268-67.947332z m-28.030492 100.413028c-9.75745 8.338184-23.595288 12.241164-42.223146 12.241164h-45.239085v-92.607068h46.303534c17.031185 0 29.804574 4.257796 40.094248 13.128205 5.322245 4.612613 12.418572 13.305613 12.418572 34.594594-0.177408 23.063063-8.338184 29.981982-11.354123 32.643105z" fill="#FFFFFF" p-id="5322"></path><path d="M494.613999 547.481635c11.886348-9.580042 24.127512-21.643798 36.368676-36.368676 12.418572-14.724879 22.530839-33.352737 30.336798-55.706168 7.80596-22.35343 11.70894-46.480942 11.70894-72.205128 0-66.350658-21.111573-119.573112-63.157311-159.667359-42.223146-39.91684-103.074151-59.963964-182.553015-59.963964H44.352044V823.173943h167.650728V592.543313h78.059598l110.525295 230.63063h189.294525l-130.927235-253.693694c11.70894-5.322245 23.595288-12.595981 35.659044-21.998614z m-121.879418-97.751905c-17.918226 15.257103-41.513514 22.885655-70.963271 22.885655h-89.59113V291.481635h90.655579c27.853084 0 50.916147 7.983368 69.366597 24.127513 18.45045 16.144144 27.675676 38.674983 27.675676 67.947332-0.354816 28.917533-9.225225 50.916147-27.143451 66.17325z" fill="#3BE3C3" p-id="5323"></path></svg>