<?xml version="1.0" standalone="no"?><!DOCTYPE svg PUBLIC "-//W3C//DTD SVG 1.1//EN" "http://www.w3.org/Graphics/SVG/1.1/DTD/svg11.dtd"><svg t="1721809363338" class="icon" viewBox="0 0 1543 1024" version="1.1" xmlns="http://www.w3.org/2000/svg" p-id="9755" xmlns:xlink="http://www.w3.org/1999/xlink" width="301.3671875" height="200"><path d="M399.424901 843.314479h674.491493c5.696901 0 10.312113 4.593577 10.312113 10.268845 0 5.668056-4.615211 10.268845-10.312113 10.268845H399.424901c-5.696901 0-10.312113-4.600789-10.312112-10.268845 0-5.675268 4.615211-10.268845 10.312112-10.268845z m-221.176788 61.598648h304.820281c5.696901 0 10.312113 4.593577 10.312113 10.261634 0 5.675268-4.615211 10.268845-10.312113 10.268845h-304.820281c-5.696901 0-10.312113-4.593577-10.312113-10.268845 0-5.668056 4.615211-10.261634 10.312113-10.261634z m416.018028 0H1353.216c5.696901 0 10.312113 4.593577 10.312113 10.261634 0 5.675268-4.615211 10.268845-10.312113 10.268845H594.25893c-5.696901 0-10.312113-4.593577-10.312113-10.268845 0-5.668056 4.615211-10.261634 10.312113-10.261634z m-514.069634 0h44.781972c5.696901 0 10.312113 4.593577 10.312113 10.261634 0 5.675268-4.615211 10.268845-10.312113 10.268845h-44.789183c-5.696901 0-10.312113-4.593577-10.312113-10.268845 0-5.668056 4.615211-10.261634 10.312113-10.261634h0.007211z m1030.151211-61.598648h30.417127c5.696901 0 10.312113 4.593577 10.312113 10.268845 0 5.668056-4.615211 10.268845-10.312113 10.268845h-30.417127c-5.696901 0-10.312113-4.600789-10.312112-10.268845 0-5.675268 4.615211-10.268845 10.312112-10.268845z m305.426028 61.598648h54.711888c5.696901 0 10.312113 4.593577 10.312112 10.261634 0 5.675268-4.615211 10.268845-10.312112 10.268845h-54.711888c-5.696901 0-10.312113-4.593577-10.312112-10.268845 0-5.668056 4.615211-10.261634 10.312112-10.261634z m-337.025802 98.549183h111.349183c5.696901 0 10.312113 4.600789 10.312112 10.268845 0 5.675268-4.615211 10.268845-10.312112 10.268845h-111.341972c-5.696901 0-10.319324-4.593577-10.319324-10.268845 0-5.668056 4.615211-10.268845 10.312113-10.268845z m-47.392451 0h16.066704c5.696901 0 10.312113 4.600789 10.312113 10.268845 0 5.675268-4.615211 10.268845-10.312113 10.268845h-16.066704c-5.696901 0-10.312113-4.593577-10.312113-10.268845 0-5.668056 4.615211-10.268845 10.312113-10.268845z m-405.489578 0h175.926085c5.696901 0 10.312113 4.600789 10.312113 10.268845 0 5.675268-4.615211 10.268845-10.312113 10.268845H625.858704c-5.696901 0-10.312113-4.593577-10.312112-10.268845 0-5.668056 4.615211-10.268845 10.312112-10.268845h0.014423z m264.163155 0h111.363606c5.696901 0 10.312113 4.600789 10.312113 10.268845 0 5.675268-4.615211 10.268845-10.312113 10.268845H890.036282c-5.696901 0-10.312113-4.593577-10.312113-10.268845 0-5.668056 4.615211-10.268845 10.312113-10.268845h-0.014423z m-559.060732-160.147831h30.417127c5.696901 0 10.312113 4.593577 10.312112 10.268845 0 5.668056-4.615211 10.261634-10.312112 10.261634h-30.417127c-5.696901 0-10.312113-4.593577-10.312113-10.261634 0-5.675268 4.615211-10.268845 10.312113-10.268845z m200.105465 61.598648h24.136112c5.696901 0 10.312113 4.593577 10.312113 10.261634 0 5.675268-4.615211 10.268845-10.312113 10.268845h-24.136112c-5.696901 0-10.312113-4.593577-10.312113-10.268845 0-5.668056 4.615211-10.261634 10.312113-10.261634z m36.618817-332.634141V389.213746c0-26.393239 16.701296-47.060732 41.947943-50.839436a120.132507 120.132507 0 0 1 25.470198-0.302873c8.01893 0.576901 13.88169 8.660732 13.48507 17.12676-0.310085 8.610254-6.944451 15.540282-15.266254 15.944113-5.372394 0.17307-10.744789 0-16.117183 0.036056-10.35538 0.144225-17.162817 7.175211-17.162817 17.999324v366.180958c0 10.997183 6.843493 18.064225 17.451268 18.064225h321.608113c10.917859 0 17.58107-6.99493 17.617127-18.648338v-100.741408l0.036056-263.348282a20.624225 20.624225 0 0 0-3.382085-12.8 15.778254 15.778254 0 0 0-12.763943-6.634366c-5.336338-0.108169-10.744789 0-16.117183-0.036056-8.963606 0.144225-16.369577-7.240113-16.528226-16.513803a16.874366 16.874366 0 0 1 4.644057-11.934648 15.792676 15.792676 0 0 1 11.501971-4.910873c9.27369 0.11538 18.756507-0.360563 27.691268 1.557633 21.345352 4.543099 36.481803 24.374085 37.246197 46.844395l0.036057 3.821972v364.457464c0 21.943887-9.518873 38.104338-28.672 47.83955-6.273803 3.079211-13.19662 4.629634-20.19155 4.507042H616.62107a47.680901 47.680901 0 0 1-34.808788-14.754254 51.019718 51.019718 0 0 1-14.134085-36.056338l0.014423-183.793577z m210.799774-167.604282h-63.192338c-20.516056 0-34.080451-14.098028-34.145352-35.263098 0-10.203944-0.036056-20.379042 0.028845-30.619043 0.108169-20.227606 13.845634-34.505915 33.417014-34.505915h127.689916c19.362254 0 33.272789 14.429746 33.308845 34.368901 0.028845 10.744789 0.072113 21.525634 0 32.306479a33.67662 33.67662 0 0 1-9.15831 23.732282 31.469972 31.469972 0 0 1-22.787606 9.915493c-21.698704 0.252394-43.426254 0.028845-65.153802 0.072112h-0.007212z m64.598536-66.668169H713.792901v33.027606h129.261972v-33.027606h0.036057z m-99.825578 132.925296a107.938254 107.938254 0 0 1 87.898141 0 59.067493 59.067493 0 0 1 26.126422 44.94062c4.160901 14.783099 2.971042 40.202817-29.097464 79.807098a62.500056 62.500056 0 0 0-13.658141 37.844733c1.355718 16.275831-10.788056 30.561352-27.128789 31.909859l-0.194704 0.014422a29.63831 29.63831 0 0 1-29.696-27.186478 117.904225 117.904225 0 0 1 26.724958-79.230198 86.246761 86.246761 0 0 0 17.234929-28.376338 30.013296 30.013296 0 0 1 0-4.730591c-5.357972-7.095887-23.761127-4.730592-35.638084 0-9.865014 4.002254-32.695887 6.490141-41.125859 0a29.63831 29.63831 0 0 1-11.278423-27.503775c1.442254-10.506817 19.960789-23.472676 29.833014-27.489352z m43.945465 205.160563a27.294648 27.294648 0 0 1 29.688789 23.054423v13.009127c-3.295549 16.32631-19.261296 26.898028-35.659719 23.616901a30.215211 30.215211 0 0 1-23.72507-23.616901v-12.417803a27.287437 27.287437 0 0 1 29.696-23.645747zM117.594141 277.568901c-31.17431 0-56.442592-25.152901-56.442592-56.190197s25.268282-56.190197 56.442592-56.190197c31.181521 0 56.449803 25.152901 56.449803 56.190197s-25.268282 56.190197-56.449803 56.190197z m0.201915-25.686535c16.816676 0 30.445972-13.571606 30.445972-30.308958 0-16.737352-13.629296-30.308958-30.445972-30.308957-16.809465 0-30.438761 13.571606-30.43876 30.308957 0 16.737352 13.629296 30.308958 30.43876 30.308958z m538.05431-206.314366c2.942197 0 5.336338 2.379718 5.336338 5.314704a5.321915 5.321915 0 0 1-5.336338 5.307493h-40.455211v40.267718a5.321915 5.321915 0 0 1-5.329127 5.307493 5.321915 5.321915 0 0 1-5.336338-5.307493V56.190197h-40.455211a5.314704 5.314704 0 0 1-5.329127-5.307493c0-2.927775 2.38693-5.300282 5.329127-5.300281h40.455211V5.300282c0-2.927775 2.394141-5.300282 5.336338-5.300282s5.321915 2.379718 5.321916 5.300282v40.282141l40.462422-0.007212zM88.604845 502.798423a3.843606 3.843606 0 1 1-0.021634 7.665577l-38.190873 0.014423v38.219718a3.843606 3.843606 0 1 1-7.701634 0v-38.248564L3.865239 510.413521a3.843606 3.843606 0 1 1 0.014423-7.665577l38.818253 0.014422V464.621972c0-2.120113 1.730704-3.836394 3.858029-3.836395 2.127324 0 3.858028 1.716282 3.858028 3.836395v38.183662l38.190873-0.007211zM1500.974873 309.348958a1.752338 1.752338 0 0 1 0 2.487887 1.773972 1.773972 0 0 1-2.495098 0l-17.494536-17.415211-17.501746 17.415211a1.773972 1.773972 0 0 1-2.495099 0 1.752338 1.752338 0 0 1 0-2.487887l17.494536-17.415212-17.494536-17.422422a1.752338 1.752338 0 0 1 0-2.487887 1.773972 1.773972 0 0 1 2.495099 0l17.501746 17.415211 17.494536-17.415211a1.773972 1.773972 0 0 1 2.495098 0 1.752338 1.752338 0 0 1 0 2.487887l-17.487324 17.422422 17.487324 17.415212zM1131.721915 400.369577c-4.499831-4.470986-8.978028-8.956394-13.492281-13.412957-0.504789-0.483155-0.468732-0.742761 0.014422-1.197071 1.103324-1.045634 2.141746-2.134535 3.230648-3.230648l0.562479 0.519212 13.629296 13.557183c0.45431 0.447099 0.411042 0.692282-0.014423 1.103324-1.08169 1.038423-2.134535 2.134535-3.24507 3.281126-0.302873-0.266817-0.504789-0.432676-0.685071-0.620169z m33.965071 25.82355l14.126873 14.098028c0.036056 0.036056 0.050479 0.072113 0.144226 0.252394-1.182648 1.161014-2.365296 2.343662-3.576789 3.475831-0.093746 0.086535-0.526423-0.036056-0.677859-0.194704-1.997521-1.93262-3.966197-3.908507-5.934874-5.862761l-7.701633-7.68-0.533634-0.555267c0.100958-0.144225 0.165859-0.281239 0.266817-0.382197 1.045634-1.045634 2.084056-2.069634 3.115267-3.115268 0.259606-0.259606 0.461521-0.346141 0.764395-0.036056z m-1.08169-26.011042c-0.901408-0.973521-1.87493-1.903775-2.826817-2.834029-0.259606-0.259606-0.360563-0.461521-0.050479-0.764394l13.924958-13.845634c0.064901-0.064901 0.144225-0.100958 0.310084-0.216338 1.175437 1.189859 2.329239 2.329239 3.461409 3.490254 0.086535 0.086535 0.050479 0.346141 0 0.497577-0.028845 0.108169-0.17307 0.201915-0.259606 0.288451-4.485408 4.470986-8.978028 8.920338-13.449014 13.391324-0.432676 0.447099-0.68507 0.432676-1.110535 0z m-31.873803 26.155267c0.915831 0.973521 1.87493 1.896563 2.841239 2.826817 0.259606 0.259606 0.346141 0.45431 0.043268 0.771606l-13.917746 13.845633-0.310085 0.216338c-1.189859-1.189859-2.343662-2.329239-3.461408-3.490253-0.093746-0.086535-0.05769-0.346141 0-0.504789 0.021634-0.11538 0.165859-0.194704 0.259605-0.28845 4.470986-4.456563 8.963606-8.913127 13.434592-13.391324 0.432676-0.439887 0.699493-0.432676 1.110535 0v0.014422z m16.708507-43.289239c0 2.797972-0.021634 5.595944 0.007211 8.401126 0.007211 0.605746-0.17307 0.793239-0.786028 0.778817a78.884056 78.884056 0 0 0-3.958986-0.007211c-0.432676 0-0.634592-0.093746-0.634591-0.576901v-17.206085c0-0.468732 0.144225-0.620169 0.612957-0.605746 1.370141 0.014423 2.73307 0.028845 4.088789 0 0.548056-0.028845 0.677859 0.17307 0.677859 0.677859-0.014423 2.841239-0.007211 5.68969-0.007211 8.530929v0.007212z m-21.835718 26.306704c-0.036056 1.334085-0.036056 2.668169 0 4.002253 0 0.461521-0.158648 0.605746-0.612958 0.605747-5.761803-0.014423-11.516394-0.014423-17.263775 0-0.497577 0-0.591324-0.209127-0.591324-0.649014 0.028845-1.348507 0.028845-2.704225 0-4.052733-0.007211-0.504789 0.158648-0.649014 0.649014-0.649014 2.855662 0.014423 5.711324 0 8.566986 0 2.826817 0 5.668056 0.021634 8.494874 0 0.576901 0 0.786028 0.137014 0.757183 0.742761z m61.137126-0.036056c-0.036056 1.348507-0.028845 2.704225 0 4.059943 0 0.432676-0.151437 0.576901-0.591323 0.576902h-17.256564c-0.519211 0-0.634592-0.201915-0.62738-0.670648 0.028845-1.326873 0.036056-2.668169 0-4.002254-0.014423-0.526423 0.165859-0.677859 0.692282-0.677859 2.848451 0.021634 5.696901 0.014423 8.559774 0.014423 2.834028 0 5.668056 0.014423 8.494873-0.014423 0.540845 0 0.742761 0.144225 0.721127 0.721127z m-39.301408 34.520338c0 2.841239-0.021634 5.682479 0 8.516507 0.007211 0.555268-0.144225 0.742761-0.706704 0.721126a94.143099 94.143099 0 0 0-4.088789 0c-0.432676 0-0.576901-0.144225-0.576901-0.576901v-17.191662c0-0.45431 0.144225-0.62738 0.612957-0.612958 1.36293 0.021634 2.725859 0.028845 4.074367 0 0.548056-0.021634 0.699493 0.158648 0.692281 0.685071-0.021634 2.812394-0.007211 5.639211-0.007211 8.458817zM1509.577915 545.171831c-18.583437 0-33.654986-14.999437-33.654985-33.503549s15.071549-33.503549 33.654985-33.50355c18.590648 0 33.654986 14.999437 33.654986 33.50355s-15.071549 33.503549-33.654986 33.503549z m-0.021633-10.225577a23.753915 23.753915 0 0 0 23.811605-23.696226 23.753915 23.753915 0 0 0-23.804394-23.703436h-0.007211a23.753915 23.753915 0 0 0-23.804395 23.703436 23.753915 23.753915 0 0 0 23.797183 23.696226z m-419.652507-381.966423a24.374085 24.374085 0 0 1-24.431775-24.323606 24.374085 24.374085 0 0 1 24.431775-24.330817 24.374085 24.374085 0 0 1 24.438986 24.330817 24.374085 24.374085 0 0 1-24.438986 24.323606z m-0.259606-11.199099a13.42738 13.42738 0 0 0 13.917746-12.893746 13.412958 13.412958 0 0 0-13.917746-13.867268 13.412958 13.412958 0 0 0-12.958648 13.867268 13.412958 13.412958 0 0 0 12.958648 12.893746z" fill="#999999" p-id="9756"></path></svg>