<?xml version="1.0" standalone="no"?><!DOCTYPE svg PUBLIC "-//W3C//DTD SVG 1.1//EN" "http://www.w3.org/Graphics/SVG/1.1/DTD/svg11.dtd"><svg t="1721616584009" class="icon" viewBox="0 0 1024 1024" version="1.1" xmlns="http://www.w3.org/2000/svg" p-id="6350" xmlns:xlink="http://www.w3.org/1999/xlink" width="100" height="100"><path d="M284.484267 128.546133c-136.669867 101.973333-153.6 325.717333-32.034134 551.253334 118.801067 220.3648 307.063467 337.442133 501.725867 277.333333 50.602667-15.616 99.157333-58.862933 99.157333-107.5712 0.017067-84.667733-96.8704-253.269333-169.437866-266.359467-20.360533-3.652267-44.970667 3.6864-81.578667 19.490134-3.7888 1.6384-7.68 3.362133-11.6736 5.1712l-9.1136 4.1984c-8.9088 4.1472-16.401067 7.7824-29.1328 14.08l-5.4784 2.696533-0.256-0.238933a122.043733 122.043733 0 0 1-6.638933-6.9632c-10.496-11.844267-22.869333-29.2864-35.345067-49.800534l-3.618133-6.0416c-16.759467-28.330667-31.6416-58.811733-41.3184-84.206933l-0.904534-2.440533 23.125334-9.898667c4.778667-2.048 9.335467-4.078933 14.114133-6.212267l13.482667-6.0928 10.376533-4.829866c26.282667-12.4416 41.8816-21.4528 50.653867-30.993067C620.714667 366.557867 521.352533 103.082667 439.825067 87.893333c-48.503467-9.045333-107.1104 6.7072-150.5792 37.205334l-4.778667 3.447466z m142.830933 26.453334c10.410667 1.9456 40.7552 48.810667 63.5392 109.226666 11.383467 30.1568 20.002133 60.586667 24.029867 84.599467l0.682666 4.164267a139.946667 139.946667 0 0 1 1.774934 20.48l-0.1024 3.140266-4.3008 2.474667-2.3552 1.314133c-7.543467 4.096-17.527467 8.994133-29.559467 14.523734l-19.797333 8.891733c-6.997333 3.072-14.062933 6.144-22.715734 9.813333l-31.402666 13.3632-4.676267 2.184534-1.570133 0.836266-0.887467-0.887466c-1.877333-1.28-3.498667 3.293867-15.991467 38.775466 20.736 88.814933 108.3392 232.942933 162.133334 233.028267l6.638933-0.733867c1.416533-0.170667 2.218667-0.324267 2.952533-0.529066l4.539734-1.621334 3.908266-1.6896 14.08-6.826666 23.944534-11.7248c3.6864-1.757867 7.168-3.413333 11.0592-5.205334l10.922666-4.949333 5.2224-2.286933a303.8208 303.8208 0 0 1 31.9488-12.100267l3.805867-1.058133c4.608-1.2288 7.338667-1.6896 6.656-1.809067 34.133333 6.144 113.288533 143.872 113.271467 199.168 0 11.605333-25.736533 34.542933-51.029334 42.359467-158.037333 48.7936-316.484267-49.732267-421.495466-244.5312-107.076267-198.6048-92.928-385.262933 12.765866-464.128 29.422933-21.9648 71.697067-33.911467 102.007467-28.2624z" fill="#1296db" p-id="6351"></path><path d="M670.1056 75.946667c92.9792 75.776 120.149333 191.3344 79.906133 305.373866l-2.218666 6.109867-63.931734-23.927467c32.836267-87.773867 14.848-173.192533-52.5312-230.997333l-4.369066-3.652267 43.144533-52.906666z" fill="#1296db" p-id="6352"></path></svg>
