<?xml version="1.0" standalone="no"?><!DOCTYPE svg PUBLIC "-//W3C//DTD SVG 1.1//EN" "http://www.w3.org/Graphics/SVG/1.1/DTD/svg11.dtd"><svg t="1721616682082" class="icon" viewBox="0 0 1024 1024" version="1.1" xmlns="http://www.w3.org/2000/svg" p-id="11026" xmlns:xlink="http://www.w3.org/1999/xlink" width="100" height="100"><path d="M815.806437 609.252351a205.983767 205.983767 0 0 0-69.775849 12.112678 208.474543 208.474543 0 0 0-61.655238 34.939105 209.293428 209.293428 0 0 0-34.973225 36.713356 206.836772 206.836772 0 0 0-36.781597 163.845296 205.199002 205.199002 0 0 0 20.472132 57.253729 208.815745 208.815745 0 0 0 36.235673 48.791914 209.873472 209.873472 0 0 0 39.988898 31.220001 208.849865 208.849865 0 0 0 66.090866 25.487804 207.723898 207.723898 0 0 0 110.20831-8.120612 208.645144 208.645144 0 0 0 76.702254-48.553073 206.973253 206.973253 0 0 0 60.392789-156.680049 205.813166 205.813166 0 0 0-15.49058-69.093445 199.432685 199.432685 0 0 0-13.716328-27.227936 210.487636 210.487636 0 0 0-31.185881-39.988897 210.078193 210.078193 0 0 0-39.988898-31.220001 208.849865 208.849865 0 0 0-66.090865-25.487805 203.561231 203.561231 0 0 0-40.432461-3.992065z m105.704441 167.871481l-107.10337 107.13749a41.456067 41.456067 0 0 1-10.167825 7.506449 42.547914 42.547914 0 0 1-24.566559 4.879191 44.015084 44.015084 0 0 1-17.913115-5.902798 43.912723 43.912723 0 0 1-8.325334-6.482842L710.238477 841.065124a28.422143 28.422143 0 0 1-3.07082-3.650864 22.075782 22.075782 0 0 1-3.17318-6.414601 23.30411 23.30411 0 0 1-0.921246-10.679629 19.926208 19.926208 0 0 1 1.160087-4.64035 23.611192 23.611192 0 0 1 8.427695-11.430273 22.041662 22.041662 0 0 1 5.220393-2.934339 26.170209 26.170209 0 0 1 6.960525-1.706011 23.542952 23.542952 0 0 1 13.88693 2.934339 21.018055 21.018055 0 0 1 4.845071 3.514382 24.83952 24.83952 0 0 1 0.853005 0.853006l39.442974 39.442974 103.418387-103.418386a23.815913 23.815913 0 0 1 11.191432-6.14164 21.359258 21.359258 0 0 1 5.800437-0.648284 22.348744 22.348744 0 0 1 6.960525 1.091847 26.613771 26.613771 0 0 1 6.31224 3.0367 20.915695 20.915695 0 0 1 3.616744 2.968459 21.086296 21.086296 0 0 1 3.002579 3.616743 30.162274 30.162274 0 0 1 2.217814 4.094426 26.750252 26.750252 0 0 1 1.706011 6.824044 22.212263 22.212263 0 0 1-0.238841 6.994646 21.359258 21.359258 0 0 1-1.774252 5.595716 30.025793 30.025793 0 0 1-2.354295 4.060306 26.954974 26.954974 0 0 1-2.251934 2.695497h0.06824z" fill="#1296db" p-id="11027"></path><path d="M712.353931 0.001706H104.331614A103.486627 103.486627 0 0 0 0.947348 103.454212v810.457581a103.520747 103.520747 0 0 0 103.452506 103.452507h546.947124a260.064315 260.064315 0 0 1-67.558036-317.727487 256.004009 256.004009 0 0 1 31.220002-47.973029 261.190283 261.190283 0 0 1 72.710188-61.177554 256.038129 256.038129 0 0 1 52.613379-22.553465 266.478917 266.478917 0 0 1 37.2934-8.359454 259.723113 259.723113 0 0 1 38.078165-2.831979h0.170601V103.454212a104.953796 104.953796 0 0 0-6.073399-34.836744 106.352725 106.352725 0 0 0-11.396153-22.621706A103.213665 103.213665 0 0 0 727.537428 1.127673 103.554867 103.554867 0 0 0 712.353931 0.001706zM343.104912 106.422672c52.74986 0 95.536615 36.645116 95.536615 104.06667 0 67.387434-42.752635 122.013906-95.536615 122.013906-52.74986 0-95.502495-54.626472-95.502495-122.048026 0-67.387434 42.786756-104.06667 95.536615-104.066671z m90.213861 720.550801a40.705422 40.705422 0 0 1-3.002579 15.081137 43.127958 43.127958 0 0 1-3.650864 6.824044 38.897051 38.897051 0 0 1-15.934142 13.750449 37.25928 37.25928 0 0 1-11.089072 3.377902 40.023018 40.023018 0 0 1-5.800437 0.409442H167.488141a40.705422 40.705422 0 0 1-15.115258-3.002579 37.566362 37.566362 0 0 1-8.393574-4.776831 40.023018 40.023018 0 0 1-12.965683-16.582427 39.374734 39.374734 0 0 1 23.201749-52.238056 42.786756 42.786756 0 0 1 9.383061-2.115454 36.576876 36.576876 0 0 1 3.889705-0.204721h226.387658a40.671302 40.671302 0 0 1 15.081137 3.002579 37.19104 37.19104 0 0 1 9.928984 5.971039 39.238253 39.238253 0 0 1 14.432853 30.503476z m-305.239486-161.866323a38.931171 38.931171 0 0 1 5.595716-20.26741 39.477094 39.477094 0 0 1 33.847258-19.175564h106.113884a35.485029 35.485029 0 0 1 7.984131 0.409443 35.041466 35.041466 0 0 1 7.74529 1.978973 40.43246 40.43246 0 0 1 14.876416 9.826623 41.353706 41.353706 0 0 1 6.824044 9.826623 40.466581 40.466581 0 0 1 4.026186 17.367192 40.603062 40.603062 0 0 1-3.207301 15.55882 40.739542 40.739542 0 0 1-9.041858 13.033924 43.332679 43.332679 0 0 1-6.312241 4.879192 34.632023 34.632023 0 0 1-5.322754 2.797858 40.36422 40.36422 0 0 1-17.537793 3.13906H167.488141a40.534821 40.534821 0 0 1-16.821269-3.787344 39.988898 39.988898 0 0 1-17.913115-17.06011 38.79469 38.79469 0 0 1-4.67447-18.52728z m401.424386-145.693338c-51.419171-0.443563-102.872463-0.341202-154.291634-0.341202-72.198385 0-144.43089 0.102361-216.663396 0.238841-6.414601 0-11.942077-1.398929-15.5247-6.482841a24.90776 24.90776 0 0 1-3.13906-20.506253c0.170601-0.716525 7.335847-85.232309 12.41976-92.158713a68.24044 68.24044 0 0 1 18.220197-16.923629c10.781989-6.824044 78.681227-32.55069 86.665359-35.416788 3.650864-1.433049 7.028765 1.125967 7.84765 4.879191 1.125967 4.879191 23.031148 84.038101 24.157116 88.303129l4.230907 14.842295c1.194208 4.435629 2.183694 8.871257 3.412022 13.306886 1.330689 4.845071 2.831978 9.621902 4.094426 14.432853 1.228328 4.435629 2.320175 8.871257 3.446143 13.306886 1.60365 6.14164 3.13906 12.283279 4.845071 18.390798 0.204721 0.750645 1.398929 1.194208 2.593136 2.217815 0.682404-6.244 1.091847-11.737356 1.842492-17.162471 1.262448-9.38306 2.797858-18.69788 4.230908-28.080941 0.682404-4.70859 1.091847-9.417181 1.67189-14.091651l2.797858-21.73458c0.580044-4.230907 1.125967-8.461815 1.603651-12.692721 0.614164-6.312241 1.091847-12.658602 1.774251-18.970843 0.341202-3.343782 1.091847-6.721683 1.398929-10.065464 0.716525-6.960525-2.149574-13.204525-4.026186-19.755608a55.615958 55.615958 0 0 1-1.774251-6.926404 3.343782 3.343782 0 0 1 2.081333-2.388416c13.545727-0.136481 27.091455-0.102361 40.603062-0.10236 1.944853 0 2.661377 0.443563 1.944852 2.627257-1.53541 4.572109-2.729618 9.212459-3.992065 13.818689-0.580044 1.808372-1.023607 3.684984-1.398929 5.561595-1.057727 6.448722-0.136481 12.795082 1.194207 19.175564 0.818885 4.537989 1.398929 9.110099 1.706011 13.750449 0.614164 6.687563 0.955366 13.409246 1.774252 20.062689 1.262448 9.792503 2.831978 19.482646 4.230907 29.241028 0.614164 4.333268 1.160087 8.666536 1.56953 12.999804 0.682404 6.585202 1.160087 13.170405 1.808372 19.755607 0.341202 3.992066 0.921246 7.984131 1.53541 11.942077 0.102361 0.784765 1.160087 1.398929 2.388415 2.831978 1.910732-7.233487 3.412022-13.477487 5.118033-19.687366 1.774251-6.17576 3.753224-12.590361 5.561596-18.902602 1.262448-4.367388 2.320175-8.871257 3.480262-13.306886 1.398929-4.776831 2.831978-9.553662 4.094427-14.398733 1.228328-4.401508 2.251935-8.871257 3.514382-13.238645 1.262448-4.70859 2.661377-9.417181 3.992066-14.091651 1.194208-4.333268 2.320175-8.803017 3.548503-13.170405l4.230907-14.842295c1.194208-4.537989 2.217814-9.110099 3.446142-13.579848 1.296568-4.776831 2.831978-9.417181 4.094427-14.09165 1.194208-4.230907 2.251935-8.632416 3.412022-12.897444 0.511803-1.978973 0.580044-4.60623 1.842491-5.629836a7.915891 7.915891 0 0 1 4.674471-1.60365 8.564175 8.564175 0 0 1 1.67189 0.170601c8.188853 2.934339 85.812353 34.15434 93.250561 39.579455a44.697488 44.697488 0 0 1 8.700656 8.086492 43.40092 43.40092 0 0 1 6.073399 10.201946c1.433049 3.309661 8.973618 90.316222 9.724263 95.741336 1.160087 8.734776-8.325334 17.844875-17.708394 17.742515z" fill="#1296db" p-id="11028"></path></svg>
